<?xml version="1.0" encoding="UTF-8"?>
<svg width="167px" height="77px" viewBox="0 0 167 77" version="1.1" xmlns="http://www.w3.org/2000/svg" xmlns:xlink="http://www.w3.org/1999/xlink">
    <title>logo-shido</title>
    <g id="Page-1" stroke="none" stroke-width="1" fill="none" fill-rule="evenodd">
        <g id="logo-shido" fill-rule="nonzero">
            <path d="M85.15,72 C83.5525055,69.2208418 82.7855217,66.0418503 82.94,62.84 C82.9989506,59.9319245 83.2865037,57.032988 83.8,54.17 C84.3220937,50.8200006 85.0569129,47.506634 86,44.25 C86.2560293,42.9916845 86.8829495,41.8388478 87.8,40.94 C88.8724492,40.2530988 90.1406069,39.9369376 91.41,40.04 C93.96,40.04 95.24,40.9 95.24,42.6 C94.9806529,45.5315645 94.502656,48.4396575 93.81,51.3 C92.8825061,54.9702881 92.2768782,58.7144738 92,62.49 C91.9397368,63.6703838 92.1447603,64.8492689 92.6,65.94 C92.9585911,66.7113124 93.7506814,67.1865666 94.6,67.14 C95.51,67.14 96.6,66.52 97.98,65.27 C99.8975005,63.4005921 101.703924,61.4205386 103.39,59.34 C103.860796,58.7009241 104.596831,58.3108251 105.39,58.28 C106.030344,58.2718451 106.62281,58.6180916 106.93,59.18 C107.346896,59.9375872 107.544288,60.7964148 107.5,61.66 C107.603385,63.3352511 107.095262,64.9910933 106.07,66.32 C101.163333,72.3733333 96.5533333,75.4 92.24,75.4 C89,75.4 86.62,74.25 85.15,72 Z M88.15,33.68 C87.0624412,32.6061465 86.490332,31.1157475 86.58,29.59 C86.5571403,27.8853687 87.3161717,26.2641365 88.64,25.19 C90.0812055,23.9958467 91.9093154,23.3698791 93.78,23.43 C95.3931153,23.354002 96.983944,23.8301924 98.29,24.78 C99.4307251,25.6947889 100.066087,27.0992725 100,28.56 C100.071001,30.3674311 99.3388181,32.1136882 98,33.33 C96.5585156,34.5514734 94.7072436,35.180477 92.82,35.09 C91.1224001,35.2117511 89.4411011,34.6905841 88.11,33.63 L88.15,33.68 Z" id="Shape" fill="#2F3542"></path>
            <path d="M144.23,59.18 C144.643425,59.9385935 144.837341,60.7973627 144.79,61.66 C144.897146,63.3341027 144.392519,64.9901299 143.37,66.32 C141.403138,68.7398173 139.130869,70.8944398 136.61,72.73 C134.53186,74.3766131 131.979972,75.3125389 129.33,75.4 C125.53,75.4 122.626667,73.1733333 120.62,68.72 C119.11485,70.8101446 117.248965,72.6150749 115.11,74.05 C113.420003,74.9757154 111.516483,75.4412503 109.59,75.4 C106.690202,75.4732335 103.914913,74.2217766 102.05,72 C99.9782121,69.5134354 98.90848,66.3434626 99.05,63.11 C99.018499,59.2452928 99.8917789,55.4268335 101.6,51.96 C103.214729,48.6291476 105.617496,45.7423954 108.6,43.55 C111.531298,41.3979305 114.982978,40.0655821 118.6,39.69 C119.283473,31.1893556 121.113388,22.8201831 124.04,14.81 C126.706667,7.93 130.223333,4.48990136 134.59,4.48990136 C136.768118,4.4779569 138.804252,5.56941466 140,7.39 C141.42,9.39 142.14,12.3 142.14,16.25 C142.14,21.85 140.763333,28.4066667 138.01,35.92 C135.025381,43.9219346 131.341119,51.6451655 127,59 C127.026099,61.1464852 127.474632,63.2668219 128.32,65.24 C128.752085,66.3093818 129.758977,67.0363657 130.91,67.11 C132.458482,67.026809 133.924948,66.3876712 135.04,65.31 C137.062122,63.4516359 138.943929,61.446158 140.67,59.31 C141.140796,58.6709241 141.876831,58.2808251 142.67,58.25 C143.323995,58.240177 143.927614,58.6000273 144.23,59.18 L144.23,59.18 Z M116.36,66.65 C117.752392,65.3746548 118.975681,63.9262006 120,62.34 C119.46584,59.3400574 119.211414,56.2969929 119.24,53.25 C119.24,52.05 119.29,50.1 119.39,47.4 C116.510839,48.3495058 114.073573,50.3106875 112.53,52.92 C110.710806,55.7225125 109.757782,58.9989665 109.79,62.34 C109.79,65.9866667 111.04,67.8133333 113.54,67.82 C114.587621,67.7705366 115.585064,67.3567042 116.36,66.65 L116.36,66.65 Z M132.28,16.89 C131.138257,21.2398343 130.32266,25.668795 129.84,30.14 C129.173333,35.5933333 128.683333,41.2966667 128.37,47.25 C133.976667,35.0366667 136.78,25.23 136.78,17.83 C136.831498,16.3374172 136.66645,14.8452477 136.29,13.4 C135.97,12.35 135.58,11.82 135.13,11.82 C134.183333,11.82 133.233333,13.51 132.28,16.89 L132.28,16.89 Z" id="Shape" fill="#2F3542"></path>
            <path d="M142.44,73.18 C140.367793,71.7160889 138.743876,69.7043708 137.75,67.37 C136.691652,64.9312005 136.15353,62.2984907 136.17,59.64 C136.104966,56.1285586 136.836626,52.6480433 138.31,49.46 C139.594015,46.651271 141.602848,44.2351489 144.13,42.46 C146.562585,40.8132151 149.442775,39.9543948 152.38,40 C155.085662,39.9104067 157.751116,40.6729644 160,42.18 C162.07329,43.647015 163.697246,45.6622442 164.69,48 C165.754032,50.4370035 166.292402,53.0709311 166.27,55.73 C166.333359,59.2423699 165.587437,62.722196 164.09,65.9 C162.789096,68.7187805 160.754882,71.1363528 158.2,72.9 C155.785524,74.5499619 152.924307,75.4222844 150,75.4 C147.307834,75.4843907 144.659101,74.7065882 142.44,73.18 Z M155.12,64.51 C156.3,62.6566667 156.89,59.9566667 156.89,56.41 C156.89,53.6633333 156.39,51.5866667 155.39,50.18 C154.620673,48.9130804 153.261602,48.1224847 151.78,48.08 C149.906656,48.1176512 148.200307,49.1659464 147.32,50.82 C146.14,52.64 145.55,55.36 145.55,58.96 C145.55,61.8066667 146.05,63.91 147.05,65.27 C147.892279,66.5209875 149.301888,67.2707793 150.81,67.27 C152.51,67.29 154,66.37 155.12,64.51 Z" id="Shape" fill="#2F3542"></path>
            <path d="M4.32588412,37.3574958 C4.38009707,37.4328607 4.43910384,37.5046879 4.50254165,37.5725358 C4.86567102,36.8003466 5.19935746,36.0574811 5.55267252,35.3243901 C7.17080352,31.9343529 9.18346232,28.7455169 11.5492142,25.8235309 C13.6245087,23.2491878 16.0565992,20.9816313 18.7725443,19.0888683 C18.9124653,18.9887099 19.0351079,18.8665642 19.1356737,18.7272101 C19.7049035,17.8279518 20.2054332,16.8798208 20.8335488,16.0294352 C22.1465093,14.2384604 23.914835,12.8281815 25.9566172,11.9436748 C28.8413347,10.6416889 32.1388335,10.5886048 35.0642943,11.7970566 C38.1417194,12.8784926 40.5109346,15.3653615 41.4337796,18.4828464 C41.5908086,19.0204465 41.6595087,19.5873702 41.7870947,20.2031666 L41.443594,20.1054211 C39.2110158,19.2571185 36.8850393,18.6763396 34.5146931,18.3753264 C31.5730544,17.9552066 28.5789034,18.0778008 25.6818166,18.7369846 C21.2308022,19.7432793 17.271036,22.2629768 14.4836921,25.8626291 C11.8274501,29.277932 9.55342308,32.9717753 7.7020058,36.878543 C6.29152971,39.7941809 5.08158371,42.8018927 4.08052644,45.8809003 C2.70463048,49.9093506 1.7187117,54.0596183 1.13623428,58.2750253 C1.13623428,58.626909 1.13623428,58.9885672 1.06753413,59.36 L1.18530582,59.36 C1.24419166,59.3013527 1.28344889,59.2427054 1.33252042,59.1840582 C4.10985825,55.7991637 7.79607569,53.2702833 11.9614151,51.8922465 C15.7481327,50.6219152 19.7742767,50.2209319 23.7385838,50.7193009 C25.8486598,50.9636645 27.9194786,51.3644209 30.0197404,51.6381082 C33.6292326,52.189368 37.3086173,52.0933699 40.8841784,51.3546464 C42.9373455,50.9143331 44.8885814,50.0918996 46.6353625,48.9305589 C49.5878461,46.8882811 51.7327569,43.8844361 52.7006043,40.4364779 C53.4929286,37.8067047 53.9092221,35.0788537 53.937207,32.3333789 C53.9306276,32.2716468 53.9306276,32.2093945 53.937207,32.1476625 L53.7899924,32.1476625 C53.3876058,32.6461643 52.9950335,33.1251171 52.5730183,33.623619 C49.7655213,36.9444693 46.1596186,39.5034345 42.0913382,41.0620489 C38.7762841,42.3004074 35.1968133,42.6673401 31.6979869,42.1274745 C29.1435121,41.7141707 26.6636071,40.9304024 24.3372565,39.8011324 C23.8759841,39.5763178 23.4245259,39.3221796 22.9730678,39.0875905 L22.9730678,39.0191687 L23.2969399,39.0191687 C25.7962764,39.239158 28.3114368,39.2096878 30.8048849,38.9311978 C34.0771704,38.6365875 37.2741824,37.7835371 40.2560628,36.4093648 C43.9949506,34.7200561 46.9980938,31.7464286 48.7159956,28.0325784 C50.7154207,23.958748 50.7802254,19.2077251 48.8926531,15.0813042 C47.7967133,12.6850315 46.2434009,10.5238519 44.319186,8.71807444 C41.6689553,6.17925516 38.5626415,4.15987563 35.1624373,2.76537561 C31.5048847,1.18207318 27.5598436,0.363657944 23.5717405,0.360837161 C21.3140926,0.340412469 19.0687353,0.693853956 16.9274546,1.40671364 C12.5096562,2.93990343 8.6653407,5.776513 5.90598758,9.53913635 C2.99982567,13.3522358 1.29234059,17.9369659 0.99883398,22.7152251 C0.647471901,27.8149091 1.8041374,32.9053672 4.32588412,37.3574958 Z" id="Path" fill="#FD7272"></path>
            <path d="M36.32,55.27 C36.2628474,55.133859 36.1438173,55.0334273 36,55 C32.33,54.83 28.7,54.34 25.06,53.86 C22.7764773,53.560007 20.4635227,53.560007 18.18,53.86 C17.63,53.93 17.08,54.06 16.46,54.18 C16.63,54.43 16.75,54.61 16.86,54.79 C17.48,55.79 18.14,56.79 18.7,57.85 C19.3714131,59.0688702 19.8121264,60.4011803 20,61.78 C20.3345458,63.8329339 19.3200144,65.8700486 17.48,66.84 C16.1809353,67.5594912 14.7719858,68.05955 13.31,68.32 C11.046436,68.761908 8.7462732,68.9895806 6.44,69 C5.56,69 4.69,69 3.82,69 L3.82,69.09 L4.11,69.31 C7.15883599,71.3729681 10.4503157,73.0522945 13.91,74.31 C17.1549494,75.5832941 20.626202,76.1788521 24.11,76.06 C26.29665,75.9510361 28.4316206,75.3566603 30.36,74.32 C32.5245708,73.1037021 34.3686851,71.3898413 35.74,69.32 C37.110838,67.3840001 37.8701549,65.0816678 37.92,62.71 C37.8999983,60.1467962 37.3554872,57.6148198 36.32,55.27 Z" id="Path" fill="#2F3542"></path>
            <path d="M37.28,62.33 C37.0519733,63.4900107 37.0895803,64.6865976 37.39,65.83 C37.6401505,66.6534771 38.3716134,67.2378524 39.23,67.3 C40.12,67.43 41.32,66.96 42.83,65.91 C44.9916529,64.3339631 47.0523622,62.6239418 49,60.79 C49.5620062,60.2048946 50.3633667,59.9131551 51.17,60 C51.8022567,60.084136 52.3386652,60.5055998 52.57,61.1 C52.8657909,61.9092031 52.938328,62.7831032 52.78,63.63 C52.6527323,65.3016675 51.9203284,66.8695807 50.72,68.04 C44.9733333,73.3733333 39.9733333,75.7266667 35.72,75.1 C32.5,74.6533333 30.32,73.1833333 29.18,70.69 C27.9832349,67.7190006 27.6639379,64.4670294 28.26,61.32" id="Path" fill="#2F3542"></path>
            <path d="M90,59.18 C89.6911663,58.6196917 89.0997565,58.2740626 88.46,58.28 C87.6668315,58.3108251 86.9307956,58.7009241 86.46,59.34 C84.7552766,61.4603574 82.9111937,63.4647953 80.94,65.34 C80.003367,66.3540196 78.7393322,67.005511 77.37,67.18 C75.92,67.18 75.2,66.18 75.2,64.18 C75.4295799,61.2684923 75.9046008,58.3815699 76.62,55.55 C77.4821049,52.0757435 78.0342696,48.5318503 78.27,44.96 C78.27,41.71 76.65,40.08 73.39,40.08 C71.4560234,40.1679057 69.5795008,40.7646675 67.95,41.81 C65.5955412,43.3146722 63.5574319,45.2644634 61.95,47.55 C59.6425961,50.7476334 57.7852452,54.2469901 56.43,57.95 C56.43,55.2033333 56.5066667,52.5366667 56.66,49.95 C63.3266667,42.69 68.13,36.3566667 71.07,30.95 C73.8453096,26.1623538 75.3689198,20.7523338 75.5,15.22 C75.6183084,12.4948055 74.8690372,9.80233108 73.36,7.53 C72.1303734,5.6368558 70.0172868,4.50484511 67.76,4.52958091 C63.4533333,4.49 59.76,7.31333333 56.68,13 C53.2866589,19.600914 50.9258755,26.6832641 49.68,34 L49.68,34 C51.5902874,32.4525163 53.3696553,30.750076 55,28.91 C55.63,28.19 56.21,27.44 56.81,26.71 L57,26.71 C56.9926892,26.8065284 56.9926892,26.9034716 57,27 C56.9479013,31.0646498 56.3354646,35.102694 55.18,39 C53.8720752,43.5217535 51.2302889,47.5436815 47.6,50.54 C47.44,53.1 47.35,55.62 47.35,58.11 L47.27,64.11 C47.27,65.11 47.2,66.34 47.2,67.94 C47.0773978,69.9038487 47.3180913,71.8734667 47.91,73.75 C48.4534522,74.8828889 49.6646442,75.5369326 50.91,75.37 C54.6633333,75.37 57.0133333,73.37 57.96,69.37 C58.6873856,66.3919265 59.6676093,63.4813649 60.89,60.67 C61.8447778,58.3304597 63.0377251,56.0953589 64.45,54 C65.65,52.33 66.58,51.49 67.23,51.49 C67.88,51.49 68.05,51.89 68.05,52.69 C67.9034923,54.8912009 67.5689391,57.075833 67.05,59.22 C66.5146854,61.6922695 66.1802612,64.2037953 66.05,66.73 C66.05,69.53 66.7166667,71.6666667 68.05,73.14 C69.5510904,74.7020798 71.6691775,75.5156012 73.83,75.36 C76.792815,75.4034905 79.6938322,74.511139 82.12,72.81 C84.7426046,70.9291713 87.1267693,68.7364114 89.22,66.28 C90.2425192,64.9501299 90.7471455,63.2941027 90.64,61.62 C90.6555651,60.7632332 90.4340814,59.9188268 90,59.18 Z M60,26.18 C60.7647189,22.6156704 61.8319165,19.1230238 63.19,15.74 C64.29,13.1666667 65.29,11.88 66.19,11.88 C66.84,11.88 67.34,12.3 67.69,13.15 C68.0940049,14.3330275 68.2737467,15.5810464 68.22,16.83 C68.0845541,20.9052077 67.0606971,24.9016628 65.22,28.54 C63.190343,32.8386496 60.6012412,36.8500762 57.52,40.47 C58.095611,35.6730992 58.9234238,30.9098374 60,26.2 L60,26.18 Z" id="Shape" fill="#2F3542"></path>
        </g>
    </g>
</svg>