<svg xmlns="http://www.w3.org/2000/svg" viewBox="0 0 2718.07 826.17"><title>Recurso 2</title><g id="b0164268-3e30-4900-88db-643c6e59ca20" data-name="Capa 2"><g id="e7421973-61aa-4ecc-8e29-4695ea88ec81" data-name="Layer 1"><path d="M1039.77,736c-56.2,0-84-21.4-84-63.9V590a14.94,14.94,0,0,1,14.9-14.9H1109a14.94,14.94,0,0,1,14.9,14.9v.7a16.62,16.62,0,0,0,16.6,16.6h8.2a16.62,16.62,0,0,0,16.6-16.6v-31.4a16.62,16.62,0,0,0-16.6-16.6h-108.8c-56.2,0-84-21.8-84-65.5V284.74c0-43.7,28.1-65.5,84-65.5h209.6c56.2,0,84,21.8,84,65.5v80.4a14.94,14.94,0,0,1-14.9,14.9h-138.3a14.94,14.94,0,0,1-14.9-14.9h0a16.62,16.62,0,0,0-16.6-16.6h-8.2a16.62,16.62,0,0,0-16.6,16.6v31.4a16.62,16.62,0,0,0,16.6,16.6h108.8c56.2,0,84,21.4,84,63.9v194.9c0,42.5-28.1,63.9-84,63.9h-209.6Z"/><path d="M1563.57,718.34v-353a16.62,16.62,0,0,0-16.6-16.6h-9.6a14.94,14.94,0,0,0-14.9,14.9v357.5a14.94,14.94,0,0,1-14.9,14.9h-138.3a14.94,14.94,0,0,1-14.9-14.9V104.94a14.94,14.94,0,0,1,14.9-14.9h138.4a14.94,14.94,0,0,1,14.9,14.9v99.4a14.94,14.94,0,0,0,14.9,14.9h110.4c56.2,0,84,21.8,84,65.5,0,0,.7,317.9.7,430.3"/><path d="M1752.77,721.14V234.34a14.94,14.94,0,0,1,14.9-14.9H1906a14.94,14.94,0,0,1,14.9,14.9v486.9a14.94,14.94,0,0,1-14.9,14.9h-138.3A15.09,15.09,0,0,1,1752.77,721.14Z"/><path d="M2026,736c-29,0-50.4-5.3-63.9-15.8s-20.2-26.6-20.2-48V284.74c0-43.7,28.1-65.5,84-65.5h110.4a14.94,14.94,0,0,0,14.9-14.9v-99.4a14.94,14.94,0,0,1,14.9-14.9h138.3a14.94,14.94,0,0,1,14.9,14.9v616.3a14.94,14.94,0,0,1-14.9,14.9L2026,736Zm110.4-387.2h-9.6a16.62,16.62,0,0,0-16.6,16.6v225.7a16.62,16.62,0,0,0,16.6,16.6h9.6a14.94,14.94,0,0,0,14.9-14.9V363.94A14.86,14.86,0,0,0,2136.37,348.84Z"/><path d="M2424.47,736c-56.2,0-84-21.4-84-63.9V284.74c0-43.7,28.1-65.5,84-65.5h209.6c56.2,0,84,21.8,84,65.5v387.5c0,42.5-28.1,63.9-84,63.9h-209.6Zm125.3-370.7a16.62,16.62,0,0,0-16.6-16.6H2525a16.62,16.62,0,0,0-16.6,16.6V591a16.62,16.62,0,0,0,16.6,16.6h8.2a16.62,16.62,0,0,0,16.6-16.6Z"/><path d="M1732.67,721a15,15,0,0,1-15,14.9h-139.1a15,15,0,0,1-15-14.9V234a15,15,0,0,1,15-14.9"/><circle cx="413.09" cy="413.09" r="413.09" style="fill:#ef4c58"/><path d="M542.11,160.62,474.4,214.38,421.82,147a16.51,16.51,0,0,0-23-2.79L207,294.78a16.51,16.51,0,0,0-2.79,23L373.92,533.91a16.36,16.36,0,0,1-2.79,23H371a16.34,16.34,0,0,1-23-2.79l-43.76-55.73a16.39,16.39,0,0,0-22.78-2.88L201,557.23a16.37,16.37,0,0,1-22.78-2.88l-.27-.27A16.29,16.29,0,0,1,180.79,531l84.46-64.82a11,11,0,0,0,1.89-15.67l-29.26-36.91A11.22,11.22,0,0,0,222,411.74L83.37,519.42a16.28,16.28,0,0,0-2.88,23l86.08,109.84a16.38,16.38,0,0,0,22.78,2.88l80.58-61.76a16.39,16.39,0,0,1,22.78,2.88L336.47,652a16.49,16.49,0,0,0,22.95,2.79L469,568.85a16.51,16.51,0,0,0,2.79-23L365.64,410.56A16.46,16.46,0,0,1,367,388.87l3.87-3.16a16.32,16.32,0,0,1,21.7,3.7l204,262.09a16.18,16.18,0,0,0,23,2.79l110.29-86.43a16.48,16.48,0,0,0,2.79-23L673.38,469l69.69-55.37a16.4,16.4,0,0,0,2.61-23L565.07,163.24A16.16,16.16,0,0,0,542.11,160.62ZM634.76,533a16.12,16.12,0,0,1-2.8,22.78l-.9.63a16.34,16.34,0,0,1-23-2.79L446.67,346.19a16,16,0,0,1-1.53-17.74c6.57-11.43,21.16-11.7,28.36-2.52ZM407.5,267.41l-82.83,65.72a18.41,18.41,0,0,1-2.79,1.8,16.46,16.46,0,0,1-19.45-4.77l-.54-.63a16.36,16.36,0,0,1,2.79-23l82.48-64.64a16.34,16.34,0,0,1,22.95,2.79h0A16.16,16.16,0,0,1,407.5,267.41ZM648.44,378.87c7.2,9.1,3.51,23.32-9.18,27a15.94,15.94,0,0,1-16.93-5.67C605,378.51,545.8,303.78,528.51,282a16,16,0,0,1-1.62-17.73c6.39-11.62,21.16-12,28.36-2.79Z" style="fill:#fff"/></g></g></svg>